<svg width="900" height="1050" viewBox="0 0 900 1050" fill="none" xmlns="http://www.w3.org/2000/svg">
  <rect width="900" height="1050" fill="#F7D9D7"/>
  <circle cx="730" cy="130" r="180" fill="#F2B85F" opacity=".8"/>
  <circle cx="120" cy="940" r="260" fill="#E96E82" opacity=".38"/>
  <path d="M0 720C170 610 270 790 440 710C610 630 725 570 900 680V1050H0V720Z" fill="#8F77CE" opacity=".24"/>
  <g opacity=".9"><path d="M147 190l12 31 33 3-25 21 8 33-28-18-29 18 9-33-26-21 34-3 12-31z" fill="#fff"/><path d="M760 520l8 21 23 2-18 14 6 23-19-13-20 13 7-23-18-14 23-2 8-21z" fill="#fff"/></g>
  <ellipse cx="451" cy="936" rx="254" ry="50" fill="#5B3450" opacity=".13"/>
  <path d="M315 785c20-147 80-220 137-220s117 73 136 220l34 181H280l35-181z" fill="#EE6A7E"/>
  <path d="M388 555h128v101c-36 29-91 28-128 0V555z" fill="#C98565"/>
  <ellipse cx="452" cy="425" rx="136" ry="169" fill="#D99A76"/>
  <path d="M319 434c-32-153 35-257 148-257 101 0 155 75 130 229-27-91-73-113-140-105-49 6-89 45-138 133z" fill="#342337"/>
  <path d="M339 361c-25 108-5 211 68 244-80-15-128-95-114-183 6-40 20-61 46-61zM563 331c64 50 80 179 5 257 90-49 105-180 52-248-19-25-40-35-57-9z" fill="#342337"/>
  <ellipse cx="405" cy="432" rx="10" ry="14" fill="#3A2932"/><ellipse cx="502" cy="432" rx="10" ry="14" fill="#3A2932"/>
  <path d="M407 508c29 30 67 29 94 0" stroke="#8F3F55" stroke-width="11" stroke-linecap="round"/>
  <path d="M270 820c-82-49-139-135-123-194 11-43 66-60 100-29 40-74 136-38 124 35-10 61-58 121-101 188z" fill="#fff" opacity=".92"/>
  <text x="258" y="694" text-anchor="middle" fill="#E45E78" font-family="Georgia,serif" font-size="48" font-style="italic">make</text><text x="258" y="750" text-anchor="middle" fill="#E45E78" font-family="Arial,sans-serif" font-weight="700" font-size="40">A WISH</text>
</svg>
